<mxfile host="app.diagrams.net" modified="2023-02-26T04:21:41.946Z" agent="5.0 (Windows NT 10.0; Win64; x64) AppleWebKit/537.36 (KHTML, like Gecko) Chrome/110.0.0.0 Safari/537.36" etag="PQ4Cy_Ls7wWaSecl-fBl" version="20.8.23" type="github">
  <diagram id="C5RBs43oDa-KdzZeNtuy" name="Page-1">
    <mxGraphModel dx="1036" dy="535" grid="1" gridSize="10" guides="1" tooltips="1" connect="1" arrows="1" fold="1" page="1" pageScale="1" pageWidth="827" pageHeight="1169" math="0" shadow="0">
      <root>
        <mxCell id="WIyWlLk6GJQsqaUBKTNV-0" />
        <mxCell id="WIyWlLk6GJQsqaUBKTNV-1" parent="WIyWlLk6GJQsqaUBKTNV-0" />
        <mxCell id="82TLdSe7nyWce95U2B21-6" value="" style="edgeStyle=orthogonalEdgeStyle;rounded=0;orthogonalLoop=1;jettySize=auto;html=1;" edge="1" parent="WIyWlLk6GJQsqaUBKTNV-1" source="82TLdSe7nyWce95U2B21-0" target="82TLdSe7nyWce95U2B21-1">
          <mxGeometry relative="1" as="geometry" />
        </mxCell>
        <mxCell id="82TLdSe7nyWce95U2B21-0" value="Start" style="strokeWidth=2;html=1;shape=mxgraph.flowchart.start_1;whiteSpace=wrap;" vertex="1" parent="WIyWlLk6GJQsqaUBKTNV-1">
          <mxGeometry x="260" y="90" width="100" height="60" as="geometry" />
        </mxCell>
        <mxCell id="82TLdSe7nyWce95U2B21-7" value="" style="edgeStyle=orthogonalEdgeStyle;rounded=0;orthogonalLoop=1;jettySize=auto;html=1;" edge="1" parent="WIyWlLk6GJQsqaUBKTNV-1" source="82TLdSe7nyWce95U2B21-1" target="82TLdSe7nyWce95U2B21-2">
          <mxGeometry relative="1" as="geometry" />
        </mxCell>
        <mxCell id="82TLdSe7nyWce95U2B21-1" value="input a,b,c" style="shape=parallelogram;html=1;strokeWidth=2;perimeter=parallelogramPerimeter;whiteSpace=wrap;rounded=1;arcSize=12;size=0.23;" vertex="1" parent="WIyWlLk6GJQsqaUBKTNV-1">
          <mxGeometry x="260" y="193" width="100" height="60" as="geometry" />
        </mxCell>
        <mxCell id="82TLdSe7nyWce95U2B21-8" value="" style="edgeStyle=orthogonalEdgeStyle;rounded=0;orthogonalLoop=1;jettySize=auto;html=1;" edge="1" parent="WIyWlLk6GJQsqaUBKTNV-1" source="82TLdSe7nyWce95U2B21-2" target="82TLdSe7nyWce95U2B21-3">
          <mxGeometry relative="1" as="geometry" />
        </mxCell>
        <mxCell id="82TLdSe7nyWce95U2B21-10" style="edgeStyle=orthogonalEdgeStyle;rounded=0;orthogonalLoop=1;jettySize=auto;html=1;entryX=0.5;entryY=0;entryDx=0;entryDy=0;" edge="1" parent="WIyWlLk6GJQsqaUBKTNV-1" source="82TLdSe7nyWce95U2B21-2" target="82TLdSe7nyWce95U2B21-4">
          <mxGeometry relative="1" as="geometry" />
        </mxCell>
        <mxCell id="82TLdSe7nyWce95U2B21-2" value="|b-c| &amp;lt; a &amp;amp;&amp;amp; a &amp;lt; b+c" style="strokeWidth=2;html=1;shape=mxgraph.flowchart.decision;whiteSpace=wrap;" vertex="1" parent="WIyWlLk6GJQsqaUBKTNV-1">
          <mxGeometry x="245" y="297" width="130" height="60" as="geometry" />
        </mxCell>
        <mxCell id="82TLdSe7nyWce95U2B21-9" value="" style="edgeStyle=orthogonalEdgeStyle;rounded=0;orthogonalLoop=1;jettySize=auto;html=1;" edge="1" parent="WIyWlLk6GJQsqaUBKTNV-1" source="82TLdSe7nyWce95U2B21-3" target="82TLdSe7nyWce95U2B21-5">
          <mxGeometry relative="1" as="geometry" />
        </mxCell>
        <mxCell id="82TLdSe7nyWce95U2B21-3" value="a,b,c are sides of triangle" style="shape=parallelogram;html=1;strokeWidth=2;perimeter=parallelogramPerimeter;whiteSpace=wrap;rounded=1;arcSize=12;size=0.23;" vertex="1" parent="WIyWlLk6GJQsqaUBKTNV-1">
          <mxGeometry x="245" y="400" width="130" height="60" as="geometry" />
        </mxCell>
        <mxCell id="82TLdSe7nyWce95U2B21-13" style="edgeStyle=orthogonalEdgeStyle;rounded=0;orthogonalLoop=1;jettySize=auto;html=1;entryX=0.5;entryY=0;entryDx=0;entryDy=0;entryPerimeter=0;" edge="1" parent="WIyWlLk6GJQsqaUBKTNV-1" source="82TLdSe7nyWce95U2B21-4" target="82TLdSe7nyWce95U2B21-5">
          <mxGeometry relative="1" as="geometry">
            <Array as="points">
              <mxPoint x="515" y="480" />
              <mxPoint x="310" y="480" />
            </Array>
          </mxGeometry>
        </mxCell>
        <mxCell id="82TLdSe7nyWce95U2B21-4" value="a,b,c are not sides of triangle" style="shape=parallelogram;html=1;strokeWidth=2;perimeter=parallelogramPerimeter;whiteSpace=wrap;rounded=1;arcSize=12;size=0.23;" vertex="1" parent="WIyWlLk6GJQsqaUBKTNV-1">
          <mxGeometry x="440" y="400" width="150" height="60" as="geometry" />
        </mxCell>
        <mxCell id="82TLdSe7nyWce95U2B21-5" value="End" style="strokeWidth=2;html=1;shape=mxgraph.flowchart.terminator;whiteSpace=wrap;" vertex="1" parent="WIyWlLk6GJQsqaUBKTNV-1">
          <mxGeometry x="260" y="500" width="100" height="60" as="geometry" />
        </mxCell>
        <mxCell id="82TLdSe7nyWce95U2B21-11" value="True" style="text;html=1;align=center;verticalAlign=middle;resizable=0;points=[];autosize=1;strokeColor=none;fillColor=none;" vertex="1" parent="WIyWlLk6GJQsqaUBKTNV-1">
          <mxGeometry x="310" y="357" width="50" height="30" as="geometry" />
        </mxCell>
        <mxCell id="82TLdSe7nyWce95U2B21-12" value="False" style="text;html=1;align=center;verticalAlign=middle;resizable=0;points=[];autosize=1;strokeColor=none;fillColor=none;" vertex="1" parent="WIyWlLk6GJQsqaUBKTNV-1">
          <mxGeometry x="390" y="297" width="50" height="30" as="geometry" />
        </mxCell>
        <UserObject label="&lt;div style=&quot;background-color:#2b2b2b;color:#a9b7c6;font-family:&#39;JetBrains Mono&#39;,monospace;font-size:9.8pt;&quot;&gt;&lt;pre&gt;BEGIN&lt;br&gt;    INPUT a,b,c&lt;br&gt;    IF (|b-c| &amp;lt; a &amp;amp;&amp;amp; a &amp;lt; (b+c))&lt;br&gt;        DISPLAY &quot;a,b,c are sides of triangle&quot;&lt;br&gt;    ELSE&lt;br&gt;        DISPLAY &quot;a,b,c are not sides of triangle&quot;&lt;br&gt;    END IF&lt;br&gt;END&lt;/pre&gt;&lt;/div&gt;" placeholders="1" name="Variable" id="82TLdSe7nyWce95U2B21-14">
          <mxCell style="text;html=1;strokeColor=none;fillColor=none;align=left;verticalAlign=middle;whiteSpace=wrap;overflow=hidden;" vertex="1" parent="WIyWlLk6GJQsqaUBKTNV-1">
            <mxGeometry x="510" y="130" width="380" height="150" as="geometry" />
          </mxCell>
        </UserObject>
      </root>
    </mxGraphModel>
  </diagram>
</mxfile>
